<mxfile host="Electron" modified="2024-10-02T08:49:59.812Z" agent="Mozilla/5.0 (Windows NT 10.0; Win64; x64) AppleWebKit/537.36 (KHTML, like Gecko) draw.io/24.5.1 Chrome/124.0.6367.207 Electron/30.0.6 Safari/537.36" etag="vrZ3CmE9F2QqIGqDaNji" version="24.5.1" type="device">
  <diagram id="C5RBs43oDa-KdzZeNtuy" name="Page-1">
    <mxGraphModel dx="823" dy="589" grid="1" gridSize="10" guides="1" tooltips="1" connect="1" arrows="1" fold="1" page="1" pageScale="1" pageWidth="827" pageHeight="1169" math="0" shadow="0">
      <root>
        <mxCell id="WIyWlLk6GJQsqaUBKTNV-0" />
        <mxCell id="WIyWlLk6GJQsqaUBKTNV-1" parent="WIyWlLk6GJQsqaUBKTNV-0" />
        <mxCell id="7QpLcQb-SuFL-XnTiSL4-0" value="Start" style="rounded=1;whiteSpace=wrap;html=1;fillColor=none;" vertex="1" parent="WIyWlLk6GJQsqaUBKTNV-1">
          <mxGeometry x="190" y="40" width="140" height="50" as="geometry" />
        </mxCell>
        <mxCell id="7QpLcQb-SuFL-XnTiSL4-1" value="End" style="rounded=1;whiteSpace=wrap;html=1;fillColor=none;" vertex="1" parent="WIyWlLk6GJQsqaUBKTNV-1">
          <mxGeometry x="195" y="603" width="140" height="50" as="geometry" />
        </mxCell>
        <mxCell id="7QpLcQb-SuFL-XnTiSL4-2" value="Save Changes" style="rounded=0;whiteSpace=wrap;html=1;fillColor=none;" vertex="1" parent="WIyWlLk6GJQsqaUBKTNV-1">
          <mxGeometry x="165" y="477" width="190" height="60" as="geometry" />
        </mxCell>
        <mxCell id="7QpLcQb-SuFL-XnTiSL4-10" style="edgeStyle=orthogonalEdgeStyle;rounded=0;orthogonalLoop=1;jettySize=auto;html=1;entryX=0.5;entryY=0;entryDx=0;entryDy=0;" edge="1" parent="WIyWlLk6GJQsqaUBKTNV-1" source="7QpLcQb-SuFL-XnTiSL4-3" target="7QpLcQb-SuFL-XnTiSL4-2">
          <mxGeometry relative="1" as="geometry" />
        </mxCell>
        <mxCell id="7QpLcQb-SuFL-XnTiSL4-3" value="Update Information" style="rounded=0;whiteSpace=wrap;html=1;fillColor=none;" vertex="1" parent="WIyWlLk6GJQsqaUBKTNV-1">
          <mxGeometry x="165" y="367" width="190" height="60" as="geometry" />
        </mxCell>
        <mxCell id="7QpLcQb-SuFL-XnTiSL4-9" style="edgeStyle=orthogonalEdgeStyle;rounded=0;orthogonalLoop=1;jettySize=auto;html=1;entryX=0.5;entryY=0;entryDx=0;entryDy=0;" edge="1" parent="WIyWlLk6GJQsqaUBKTNV-1" source="7QpLcQb-SuFL-XnTiSL4-5" target="7QpLcQb-SuFL-XnTiSL4-3">
          <mxGeometry relative="1" as="geometry" />
        </mxCell>
        <mxCell id="7QpLcQb-SuFL-XnTiSL4-5" value="Link to Colonists" style="rounded=0;whiteSpace=wrap;html=1;fillColor=none;" vertex="1" parent="WIyWlLk6GJQsqaUBKTNV-1">
          <mxGeometry x="165" y="243" width="190" height="60" as="geometry" />
        </mxCell>
        <mxCell id="7QpLcQb-SuFL-XnTiSL4-6" value="Enter Dependent List" style="shape=parallelogram;perimeter=parallelogramPerimeter;whiteSpace=wrap;html=1;fixedSize=1;fillColor=none;" vertex="1" parent="WIyWlLk6GJQsqaUBKTNV-1">
          <mxGeometry x="160" y="140" width="210" height="60" as="geometry" />
        </mxCell>
        <mxCell id="7QpLcQb-SuFL-XnTiSL4-7" style="edgeStyle=orthogonalEdgeStyle;rounded=0;orthogonalLoop=1;jettySize=auto;html=1;entryX=0.478;entryY=-0.024;entryDx=0;entryDy=0;entryPerimeter=0;" edge="1" parent="WIyWlLk6GJQsqaUBKTNV-1" source="7QpLcQb-SuFL-XnTiSL4-0" target="7QpLcQb-SuFL-XnTiSL4-6">
          <mxGeometry relative="1" as="geometry" />
        </mxCell>
        <mxCell id="7QpLcQb-SuFL-XnTiSL4-8" style="edgeStyle=orthogonalEdgeStyle;rounded=0;orthogonalLoop=1;jettySize=auto;html=1;entryX=0.524;entryY=-0.016;entryDx=0;entryDy=0;entryPerimeter=0;" edge="1" parent="WIyWlLk6GJQsqaUBKTNV-1" source="7QpLcQb-SuFL-XnTiSL4-6" target="7QpLcQb-SuFL-XnTiSL4-5">
          <mxGeometry relative="1" as="geometry" />
        </mxCell>
        <mxCell id="7QpLcQb-SuFL-XnTiSL4-11" style="edgeStyle=orthogonalEdgeStyle;rounded=0;orthogonalLoop=1;jettySize=auto;html=1;entryX=0.458;entryY=0.05;entryDx=0;entryDy=0;entryPerimeter=0;" edge="1" parent="WIyWlLk6GJQsqaUBKTNV-1" source="7QpLcQb-SuFL-XnTiSL4-2" target="7QpLcQb-SuFL-XnTiSL4-1">
          <mxGeometry relative="1" as="geometry" />
        </mxCell>
      </root>
    </mxGraphModel>
  </diagram>
</mxfile>
